inDegrees=yes
name=ik_coleta1_mov
DataType=double
version=3
OpenSimVersion=4.4-2022-07-23-0e9fedc
endheader
time	q1	q2
12.73207402229309	-1.857035765854264	-41.27743804346496
12.73607015609741	-1.857035779829384	-38.15345246821532
12.74206614494324	-1.009414022084503	-39.00107422759852
12.74707388877869	-1.009414026597321	-36.69781546167992
12.75607585906982	-1.009414024935261	-34.75661438355034
12.76207494735718	-1.009414046827457	-30.59826167592336
12.76807594299316	-0.1397613050238246	-31.46791442075804
12.77207708358765	-0.1397613131690336	-28.3228435167065
12.78107595443726	-0.1397613129431704	-25.20845094934399
12.79107189178467	17.57719142770138	-42.92540921819647
12.79808187484741	17.5771841730325	-38.02324359764107
12.80507683753967	17.57718425203779	-36.07855585221405
12.83208012580872	18.93349534937131	-37.43486695465484
12.83607602119446	18.9334953381649	-35.28931350031181
12.8420729637146	18.933495343689	-33.8806109172566
12.84907197952271	21.9170731931098	-36.86418881716313
12.86208200454712	21.9170731497512	-35.4668254253678
12.86607193946838	23.07907785306116	-36.62883013210725
12.87106800079346	23.0790778471575	-35.03838085919384
12.87807393074036	25.19555156902754	-37.15485460108196
12.88307404518127	25.19555155268711	-35.72004431294524
12.89408397674561	28.55924098581554	-39.083733828593
12.89906978607178	28.55924093479052	-37.56299966172409
12.90908002853394	28.55924092373849	-34.89010406974682
12.91507911682129	29.67760693574547	-36.0084700882171
12.92307305335999	29.6776069321931	-34.61600495754942
12.92807698249817	33.69037553991174	-38.62877372463733
12.93508291244507	33.69037545352358	-35.28578119551639
12.94008278846741	38.83752851060862	-40.43293461914178
12.94606995582581	38.83752837755921	-39.09880952384005
12.95307111740112	44.12666985639794	-44.3879514026324
12.95908999443054	44.12666965565747	-42.05349627390869
12.96408796310425	44.12666964450251	-39.01018780872146
12.96906900405884	44.04431584718275	-38.92783401770772
12.97406601905823	44.0443158469652	-38.25675075874585
12.98307299613953	44.0443158457697	-37.00601071203977
12.99307584762573	44.04431584712718	-36.57883325276335
13.00308609008789	44.04431584715533	-36.2397051353384
13.02509784698486	44.04431584716492	-35.94475517353612
13.02908205986023	43.50790310479996	-35.40834243060888
13.03708410263062	43.50790310499347	-35.21117774719738
13.0440719127655	42.77484676029646	-34.47812140105029
13.0550708770752	41.37956079967823	-33.08283543187169
13.05905818939209	41.37956080332763	-32.88277287693506
13.06310081481934	39.8761276907067	-31.37933975192616
13.06707811355591	39.87737058298843	-31.37809686148769
13.07208585739136	38.56706374596985	-30.06716761516625
13.07607793807983	38.56706374908289	-30.0939241731319
13.08007192611694	37.57030670787049	-29.09716712835825
13.08607292175293	37.57030670927779	-29.25409328862724
13.10110688209534	37.57030670927877	-29.42597150639184
13.12709283828735	37.57030670928224	-29.63753375022217
13.15608906745911	37.57030670928872	-29.8978307330762
13.16507697105408	37.57030670930466	-30.2334446515501
13.17707490921021	37.57030674042858	-33.63750994109229
13.22711181640625	37.57030676108599	-37.67111543085319
13.27610492706299	35.07942250000395	-35.18023113211581
13.28306698799133	32.48408554638967	-32.58489417467938
13.29507493972778	22.38495940927326	-22.48576612690515
13.30009198188782	22.38496041999399	-27.5841848563033
13.30807185173035	22.38496037992437	-31.35947563417575
13.32607197761536	18.6581076672022	-27.6326228922799
13.33309984207153	18.65810770390486	-29.14802745811023
13.33706212043762	15.80526939844295	-26.29518914364565
13.34407186508179	14.53493658532692	-25.02485633865312
13.35208106040955	13.47797554608289	-23.96789529974265
13.36105990409851	12.449020835625	-22.93894058931986
13.37708902359009	-1.226633691902016	-9.263285081680095
13.38408279418945	-1.226623875436821	-10.58504265364311
13.38907313346863	-1.707679744749467	-10.10398678424491
13.39206910133362	-1.707679736058931	-11.69234135084134
13.41607117652893	-1.707679743954893	-12.26112606309509
13.42808485031128	-1.707679743894063	-12.85877370510528
13.45208692550659	-1.707679648746224	-16.44912061439386
13.46208715438843	-1.70767837796132	-25.16207948074858
13.47909498214722	-1.707679739310044	-26.50706877363031
13.48807907104492	-1.707679713691125	-28.96436513176887
13.50408291816711	-1.707679462955429	-34.11012243257122
13.50806498527527	-1.976372517791825	-33.84142937136197
13.51907300949097	-1.976372516726568	-34.63244755478461
13.54010200500488	-2.524343096593194	-34.08447697477895
13.54907417297363	-2.62532466368795	-33.98349540779856
13.56607103347778	-2.625324654316141	-35.68710755541234
13.58010387420654	-2.625324649861126	-37.62660084889606
13.59409189224243	-2.62532466080389	-38.77646263624141
13.61410093307495	-2.625324663411282	-39.30082063565945
13.61706590652466	-2.64508834590632	-39.28105695315628
13.62305188179016	-2.64508834590632	-39.28105695315628
13.64207792282104	-2.514964159318692	-39.41118113974567
13.65007090568542	-2.248437647506677	-39.67770765157129
